<?xml version="1.0" standalone="no"?><!DOCTYPE svg PUBLIC "-//W3C//DTD SVG 1.1//EN" "http://www.w3.org/Graphics/SVG/1.1/DTD/svg11.dtd"><svg t="1544691356669" class="icon" style="" viewBox="0 0 1024 1024" version="1.1" xmlns="http://www.w3.org/2000/svg" p-id="16996" xmlns:xlink="http://www.w3.org/1999/xlink" width="32" height="32"><defs><style type="text/css"></style></defs><path d="M166.4 749c20-17.8 68.2-55.4 217.6-123.6 1-0.4 2-1 3-1.4l33.4-15c0.6-0.2 1.2-0.6 1.8-0.8v40.6l7.6 65.8c36.2-10.4 82.4-21.4 82.4-21.4l80.8 27.8 8.4-72.4v-40.4c1 0.4 1.8 0.8 2.8 1.2l15.6 7c10 4.4 19.4 8.8 28.6 13 19.2 8.8 36.6 17 52.4 24.8 103.2 50.6 139.4 79.6 156.6 94.8 6.8 6 13.2 15.6 18.8 27.6 42.4-66.8 67-146 67-231C943.4 307.2 750.2 114 512 114S80.6 307.2 80.6 545.6c0 85 24.6 164.2 67 231 5.8-12 12-21.4 18.8-27.6z" fill="#00B8E9" p-id="16997"></path><path d="M422.4 444.2v204.8c24.6 29.2 57.2 44.2 89.6 44.6V361.2c-44.8 0-89.6 27.6-89.6 83z" fill="#DCC5A1" p-id="16998"></path><path d="M512 361.2v332.2c32.6 0.2 65-14.4 89.6-44.6V444.2c0-55.4-44.8-83-89.6-83z" fill="#EDD9B4" p-id="16999"></path><path d="M601.6 440.4v131c-34 23.6-66.6 36.8-89.6 36.8s-55.8-13.2-89.6-36.8v-131c0-105.6 179.2-105.6 179.2 0" fill="#BC9F82" p-id="17000"></path><path d="M408.8 438.4s87.2 29.4 196.8 0c0 0-81.6 98.8-196.8 0" fill="#FFFFFF" p-id="17001"></path><path d="M408.8 438.4s91 31.6 196.8 0c-63.2-3.2-50-6.4-196.8 0" fill="#E5917A" p-id="17002"></path><path d="M408.8 438.4s97.2 94.2 196.8 0c0 0-21.4 68.2-93.4 68.4-72 0.4-103.4-68.4-103.4-68.4" fill="#E5917A" p-id="17003"></path><path d="M512 76.6c-182.8 0-214.6 134.2-207 246-8-6.8-16.6-9.8-24.2-7.2-15.8 5.2-21.4 31.6-12.4 58.8 9 27.4 29 45.2 44.8 40 2-0.6 4-1.8 5.6-3.2 7.4 30.2 15.8 51.8 20 58 21.6 32 124.4 116.6 173 116.6l0.2-509z" fill="#DCC5A1" p-id="17004"></path><path d="M742.6 315.4c-7.4-2.4-15.8 0.2-23.4 6.6 7.4-111.8-24.6-245.4-207.2-245.4v509.2c48.6 0 151.4-84.6 173-116.6 4.2-6.2 12.4-27.6 19.8-57.4 1.6 1.2 3.2 2 5 2.6 15.8 5.2 36-12.8 44.8-40 9.2-27.4 3.8-53.8-12-59z" fill="#EDD9B4" p-id="17005"></path><path d="M374.4 198.2c-17.4 95.4-61.2 86.4-57.8 198.4-14-87.2-35-203.4 24.2-279.8 47.4-61.2 204.4-104.8 306-31.6 112.2 24 77.2 252.6 62.2 295.8-10.6-70-34-99.2-63.8-181.4-40.2 29-219 35.4-270.8-1.4" fill="#422F18" p-id="17006"></path><path d="M425.8 317.2c11.6 0 21.2 10.8 21.2 24s-9.4 24-21.2 24c-11.6 0-21.2-10.8-21.2-24 0-13.4 9.4-24 21.2-24M597.4 317.2c11.6 0 21.2 10.8 21.2 24s-9.4 24-21.2 24c-11.6 0-21.2-10.8-21.2-24 0.2-13.4 9.6-24 21.2-24" fill="#342214" p-id="17007"></path><path d="M468 469c7.6 16.6 24.2 28.2 43.6 28.2 19.4 0 36.2-11.6 43.6-28.2H468z" fill="#FFFFFF" p-id="17008"></path><path d="M387 624l33.4-15c-11.4 5.2-22.6 10.2-33.4 15zM604.4 609.6l15.6 7c-5-2.4-10.2-4.6-15.6-7z" fill="#3E7EBC" p-id="17009"></path><path d="M384 625.4c1-0.4 2-1 3-1.4l-3 1.4zM422.4 608.2l-1.8 0.8c0.6-0.2 1.2-0.6 1.8-0.8zM648.4 629.2l-28.4-12.6c10 4.4 19.4 8.8 28.6 13l-0.2-0.4zM601.6 608.4c1 0.4 1.8 0.8 2.8 1.2l-2.8-1.2z" fill="#89BCE5" p-id="17010"></path><path d="M512 977z" fill="#BE1E2D" p-id="17011"></path><path d="M274.2 905.6c2.4-18.8 4-30.4 4-30.4v33c31.4 20.4 65.8 36.6 102.2 48.4l-59.8-121.4 70.4-47-86-40.2 79-122.6c-149.4 68.2-197.6 105.8-217.6 123.6-6.8 6-13.2 15.6-18.8 27.6 32.6 51.4 75.8 95.4 126.6 129zM857.6 749c-17-15.2-53.4-44.2-156.6-94.8-15.8-7.8-33.2-16-52.4-24.8l70 118.6-86 40.2 70.4 47-59.8 121.6c36.6-11.6 71-28 102.6-48.4v-33s1.6 11.4 4 30.4c50.8-33.6 94-77.6 126.6-129-5.8-12.2-12-21.6-18.8-27.8z" fill="#3E7EBC" p-id="17012"></path><path d="M460 973.8l0.2 2.2c1.8 0 3.4 0.2 5.2 0.2l0.2-1.6c-1.8-0.2-3.6-0.4-5.6-0.8zM460 973.8c1.8 0.2 3.8 0.4 5.6 0.6l29.4-206-24-33.2 41.2-42s-46.2 11-82.4 21.4L460 973.8zM558.4 974.6l0.2 1.6c1.6 0 3.2-0.2 4.8-0.2l0.2-2c-1.8 0.2-3.6 0.4-5.2 0.6zM512.4 693.4l39.8 42-23.6 33.2 29.4 206 5.4-0.6 29.6-252.8-80.6-27.8z" fill="#E6E6E5" p-id="17013"></path><path d="M430 714.8l-7.6-65.8v-40.6c-0.6 0.2-1.2 0.6-1.8 0.8l-33.4 15c-1 0.4-2 1-3 1.4L305 748l86 40.2-70.4 47 59.8 121.4c16.8 5.4 34 9.8 51.6 13 9.2 1.8 18.6 3.2 28 4.4l-30-259.2zM718.6 748l-70-118.6c-9.2-4.2-18.6-8.6-28.6-13l-15.6-7c-1-0.4-1.8-0.8-2.8-1.2v40.4l-8.4 72.4L563.6 974c14.4-1.8 28.6-4.2 42.6-7.2 12.6-2.8 24.8-6.2 37-10l59.8-121.6-70.4-47 86-40.2z" fill="#89BCE5" p-id="17014"></path><path d="M528.8 768.6l23.6-33.2-39.8-42-41.2 42 24 33.2-29.4 206c15.2 1.6 30.6 2.4 46.2 2.4 15.6 0 31-0.8 46.2-2.4l-29.6-206z" fill="#1B75BC" p-id="17015"></path><path d="M274.2 905.6c1.4 0.8 2.6 1.8 4 2.6v-33s-1.6 11.4-4 30.4zM745.8 908.2c1.4-0.8 2.6-1.8 4-2.6-2.4-18.8-4-30.4-4-30.4s0.2 12.4 0 33z" fill="#314E67" p-id="17016"></path><path d="M422.4 581.2l-8 30.4 22 158.8 76-77zM601.6 581.2l6.2 30-20.6 160.8-74.8-78.6z" fill="#FFFFFF" p-id="17017"></path></svg>