<?xml version="1.0" standalone="no"?><!DOCTYPE svg PUBLIC "-//W3C//DTD SVG 1.1//EN" "http://www.w3.org/Graphics/SVG/1.1/DTD/svg11.dtd"><svg t="1543820563844" class="icon" style="" viewBox="0 0 1024 1024" version="1.1" xmlns="http://www.w3.org/2000/svg" p-id="22279" xmlns:xlink="http://www.w3.org/1999/xlink" width="200" height="200"><defs><style type="text/css"></style></defs><path d="M865.64 399.76v33.6l-100.6 17.32-100.64-17.32v-33.6l40.76-52.76h119.76l40.72 52.76z" fill="#FFD659" p-id="22280"></path><path d="M765.04 458.68h-1.36l-100.6-17.32a8 8 0 0 1-6.64-8v-33.6a8 8 0 0 1 1.68-4.88l40.68-52.76a8 8 0 0 1 6.32-3.12h119.76a8 8 0 0 1 6.32 3.12L872 394.88a8 8 0 0 1 1.68 4.88v33.6a8 8 0 0 1-6.64 8l-100.6 17.32z m-92.6-32l92.6 16 92.6-16v-24l-36.64-47.48h-112l-36.64 47.48z" fill="#2FB1EA" p-id="22281"></path><path d="M928.56 436.4v156.72a100.8 100.8 0 0 1-100.8 100.8h-125.48a100.8 100.8 0 0 1-100.8-100.8V436.4a40.32 40.32 0 0 1 25.76-37.6l20.88-8 116.92 60 116.92-60 20.88 8a40.32 40.32 0 0 1 25.72 37.6z" fill="#6DD0FC" p-id="22282"></path><path d="M928.56 436.4v116.96a100.8 100.8 0 0 1-100.8 100.8h-125.48a100.8 100.8 0 0 1-100.8-100.8V436.4a40.32 40.32 0 0 1 25.76-37.6l20.88-8 116.92 60 116.92-60 20.88 8a40.32 40.32 0 0 1 25.72 37.6z" fill="#A4ECFF" p-id="22283"></path><path d="M696.8 516.64a39.68 39.68 0 0 0 23.28-2.08l2.8 2.76a60.28 60.28 0 0 0 84.24 0l2.8-2.76a40 40 0 0 0 15 2.96 40.52 40.52 0 0 0 8.4-0.88 40 40 0 0 0 26.88-20l50.28-93.64a40.28 40.28 0 0 0-7.64-4l-20.88-8-116.92 60L648 390.72l-20.88 8a40.28 40.28 0 0 0-7.64 4l50.28 93.68a40 40 0 0 0 27.04 20.24z" fill="#6DD0FC" p-id="22284"></path><path d="M827.76 701.92h-125.48a108.92 108.92 0 0 1-108.8-108.8V436.4a48.64 48.64 0 0 1 30.84-45.04l20.88-8a8 8 0 0 1 6.56 0.36l113.24 58.12 113.28-58.24a8 8 0 0 1 6.56-0.36l20.88 8a48.64 48.64 0 0 1 30.84 45.04v156.72a108.92 108.92 0 0 1-108.8 108.92z m-180-302.44l-17.56 6.8a32.52 32.52 0 0 0-20.64 30.12v156.72a92.92 92.92 0 0 0 92.8 92.8h125.48a92.92 92.92 0 0 0 92.8-92.8V436.4a32.52 32.52 0 0 0-20.64-30.12l-17.56-6.8-113.72 58.32a8 8 0 0 1-7.32 0z" fill="#2FB1EA" p-id="22285"></path><path d="M801.32 639.64l-20 27.6a20 20 0 0 1-32.68 0l-20-27.6a40.32 40.32 0 0 1-7.16-29.76L740 492h50.4l18.24 117.76a40.32 40.32 0 0 1-7.32 29.88z" fill="#FF8888" p-id="22286"></path><path d="M744.52 492l-6.52 42.08a49.16 49.16 0 0 0 54.04 0L785.52 492z" fill="#F97171" p-id="22287"></path><path d="M765.04 683.64a28 28 0 0 1-22.84-11.68l-20-27.6a48 48 0 0 1-8.56-35.68l18.36-117.76a8 8 0 0 1 8-6.76h50.4a8 8 0 0 1 8 6.76l18.24 117.76a48 48 0 0 1-8.56 35.68l-20 27.6a28 28 0 0 1-23.04 11.68zM746.68 500l-17.16 110.96a32 32 0 0 0 5.72 24l20 27.6a12 12 0 0 0 19.72 0l20-27.6a32 32 0 0 0 5.72-24L783.36 500z" fill="#2FB1EA" p-id="22288"></path><path d="M819.36 468.64L779.16 508a20 20 0 0 1-28.24 0l-40.2-39.44 54.32-21.96z" fill="#FF8888" p-id="22289"></path><path d="M765.04 521.8a28 28 0 0 1-19.72-8l-40.2-39.44a8 8 0 0 1 2.6-13.12l54.32-21.96a8 8 0 0 1 6 0l54.32 21.96a8 8 0 0 1 2.6 13.12l-40.2 39.44a28 28 0 0 1-19.72 8z m-40-50.32l31.48 30.88a12.2 12.2 0 0 0 17.04 0l31.48-30.88-40-16z" fill="#2FB1EA" p-id="22290"></path><path d="M689.76 356.32l-41.64 34.4 57 106.12 59.92-46.16-75.28-94.36z" fill="#FFFFFF" p-id="22291"></path><path d="M705.08 504.84a8 8 0 0 1-1.68 0 8 8 0 0 1-5.36-4l-56.96-106.32a8 8 0 0 1 1.96-9.96l41.6-34.4a8 8 0 0 1 11.36 1.16l75.28 94.4a8 8 0 0 1-1.36 11.32l-60 46.16a8 8 0 0 1-4.84 1.64z m-46.8-112l49.4 92 46-35.44-65.12-81.76z" fill="#2FB1EA" p-id="22292"></path><path d="M840.32 356.32l41.6 34.4-56.96 106.12-59.92-46.16 75.28-94.36z" fill="#FFFFFF" p-id="22293"></path><path d="M824.96 504.84a8 8 0 0 1-4.88-1.68l-60-46.16a8 8 0 0 1-1.36-11.32l75.28-94.4a8 8 0 0 1 11.36-1.16l41.6 34.4a8 8 0 0 1 1.96 9.96L832 500.64a8 8 0 0 1-5.36 4 8 8 0 0 1-1.68 0.2z m-48.6-55.52l46 35.44 49.4-92-30.28-25.04z" fill="#2FB1EA" p-id="22294"></path><path d="M684.36 176m80.64 0l0 0q80.64 0 80.64 80.64l0 40.32q0 80.64-80.64 80.64l0 0q-80.64 0-80.64-80.64l0-40.32q0-80.64 80.64-80.64Z" fill="#FFC444" p-id="22295"></path><path d="M684.36 176m80.64 0l0 0q80.64 0 80.64 80.64l0 12.32q0 80.64-80.64 80.64l0 0q-80.64 0-80.64-80.64l0-12.32q0-80.64 80.64-80.64Z" fill="#FFE76E" p-id="22296"></path><path d="M765.04 385.6a88.76 88.76 0 0 1-88.64-88.64V256.64a88.64 88.64 0 1 1 177.28 0v40.32a88.76 88.76 0 0 1-88.64 88.64z m0-201.6a72.72 72.72 0 0 0-72.64 72.64v40.32a72.64 72.64 0 1 0 145.28 0V256.64A72.72 72.72 0 0 0 765.04 184z" fill="#2FB1EA" p-id="22297"></path><path d="M359.56 399.76v33.6l-100.6 17.32-100.6-17.32v-33.6l40.72-52.76h119.76l40.72 52.76z" fill="#FFD659" p-id="22298"></path><path d="M258.96 458.68h-1.36l-100.6-17.32a8 8 0 0 1-6.64-8v-33.6a8 8 0 0 1 1.64-4.88l40.76-52.76a8 8 0 0 1 6.32-3.12h119.76a8 8 0 0 1 6.32 3.12l40.76 52.76a8 8 0 0 1 1.68 4.88v33.6a8 8 0 0 1-6.64 8l-100.6 17.32z m-92.6-32l92.6 16 92.6-16v-24l-36.64-47.68h-112l-36.64 47.48z" fill="#2FB1EA" p-id="22299"></path><path d="M422.52 436.4v156.72a100.8 100.8 0 0 1-100.8 100.8H196.24a100.8 100.8 0 0 1-100.8-100.8V436.4a40.32 40.32 0 0 1 25.76-37.6l20.88-8 116.92 60L376 390.72l20.88 8a40.32 40.32 0 0 1 25.64 37.68z" fill="#6DD0FC" p-id="22300"></path><path d="M422.52 436.4v116.96a100.8 100.8 0 0 1-100.8 100.8H196.24a100.8 100.8 0 0 1-100.8-100.8V436.4a40.32 40.32 0 0 1 25.76-37.6l20.88-8 116.92 60L376 390.72l20.88 8a40.32 40.32 0 0 1 25.64 37.68z" fill="#A4ECFF" p-id="22301"></path><path d="M190.76 516.64a39.68 39.68 0 0 0 23.28-2.08l2.8 2.76a60.28 60.28 0 0 0 84.24 0l2.8-2.76a40 40 0 0 0 15 2.96 40.52 40.52 0 0 0 8.4-0.88 40 40 0 0 0 26.88-20l50.24-93.84a40.28 40.28 0 0 0-7.64-4l-20.88-8-116.92 60-116.92-60-20.88 8a40.28 40.28 0 0 0-7.64 4L164 496.44a40 40 0 0 0 26.76 20.2z" fill="#6DD0FC" p-id="22302"></path><path d="M321.72 701.92H196.24a108.92 108.92 0 0 1-108.8-108.8V436.4a48.64 48.64 0 0 1 30.84-45.04l20.88-8a8 8 0 0 1 6.56 0.36l113.24 58.12L372.24 383.6a8 8 0 0 1 6.56-0.36l20.88 8a48.64 48.64 0 0 1 30.84 45.04v156.72a108.92 108.92 0 0 1-108.8 108.92z m-180-302.44l-17.72 6.8a32.52 32.52 0 0 0-20.64 30.12v156.72a92.92 92.92 0 0 0 92.8 92.8h125.56a92.92 92.92 0 0 0 92.8-92.8V436.4a32.52 32.52 0 0 0-20.64-30.12l-17.56-6.8-113.68 58.32a8 8 0 0 1-7.32 0z" fill="#2FB1EA" p-id="22303"></path><path d="M295.24 639.64l-20 27.6a20 20 0 0 1-32.68 0l-20-27.6a40.32 40.32 0 0 1-7.16-29.76L233.76 492H284l18.24 117.76a40.32 40.32 0 0 1-7 29.88z" fill="#FF8888" p-id="22304"></path><path d="M238.48 492L232 534.24a49.16 49.16 0 0 0 54.04 0L279.48 492z" fill="#F97171" p-id="22305"></path><path d="M258.96 683.64A28 28 0 0 1 236 672l-20-27.6a48 48 0 0 1-8.56-35.68l18.24-117.76a8 8 0 0 1 8-6.76H284a8 8 0 0 1 8 6.76l18.24 117.76a48 48 0 0 1-8.56 35.68l-20 27.6a28 28 0 0 1-22.72 11.64zM240.64 500l-17.16 110.96a32 32 0 0 0 5.72 24l20 27.6a12 12 0 0 0 19.72 0l20-27.6a32 32 0 0 0 5.72-24L277.32 500z" fill="#2FB1EA" p-id="22306"></path><path d="M313.32 468.64L273.08 508a20 20 0 0 1-28.24 0l-40.2-39.44 54.32-21.96z" fill="#FF8888" p-id="22307"></path><path d="M258.96 521.8a28 28 0 0 1-19.72-8l-40.2-39.44a8 8 0 0 1 2.6-13.12L256 439.28a8 8 0 0 1 6 0l54.32 21.96a8 8 0 0 1 2.6 13.12l-40.2 39.44a28 28 0 0 1-19.76 8z m-40-50.32l31.48 30.88a12.2 12.2 0 0 0 17.04 0l31.48-30.88-40-16z" fill="#2FB1EA" p-id="22308"></path><path d="M183.68 356.32l-41.6 34.4 56.96 106.12 59.92-46.16-75.28-94.36z" fill="#FFFFFF" p-id="22309"></path><path d="M199.04 504.84a8 8 0 0 1-1.68 0 8 8 0 0 1-5.36-4L135.04 394.52a8 8 0 0 1 1.96-9.96l41.6-34.4a8 8 0 0 1 11.36 1.16l75.28 94.4a8 8 0 0 1-1.36 11.32L204 503.2a8 8 0 0 1-4.96 1.64z m-46.8-112l49.4 92 46-35.44-65.12-81.76z" fill="#2FB1EA" p-id="22310"></path><path d="M334.24 356.32l41.64 34.4-57 106.12-59.92-46.16 75.28-94.36z" fill="#FFFFFF" p-id="22311"></path><path d="M318.92 504.84a8 8 0 0 1-4.88-1.68l-60-46.16a8 8 0 0 1-1.36-11.32L328 351.32a8 8 0 0 1 11.36-1.16l41.6 34.4a8 8 0 0 1 1.96 9.96l-56.96 106.12a8 8 0 0 1-5.36 4 8 8 0 0 1-1.68 0.2z m-48.6-55.52l46 35.44 49.4-92-30.28-25.04z" fill="#2FB1EA" p-id="22312"></path><path d="M178.32 176m80.64 0l0 0q80.64 0 80.64 80.64l0 40.32q0 80.64-80.64 80.64l0 0q-80.64 0-80.64-80.64l0-40.32q0-80.64 80.64-80.64Z" fill="#FFC444" p-id="22313"></path><path d="M178.32 176m80.64 0l0 0q80.64 0 80.64 80.64l0 12.32q0 80.64-80.64 80.64l0 0q-80.64 0-80.64-80.64l0-12.32q0-80.64 80.64-80.64Z" fill="#FFE76E" p-id="22314"></path><path d="M258.96 385.6a88.76 88.76 0 0 1-88.64-88.64V256.64a88.64 88.64 0 0 1 177.28 0v40.32A88.76 88.76 0 0 1 258.96 385.6z m0-201.6a72.72 72.72 0 0 0-72.64 72.64v40.32a72.64 72.64 0 1 0 145.28 0V256.64A72.72 72.72 0 0 0 258.96 184z" fill="#2FB1EA" p-id="22315"></path><path d="M612.36 553.84v33.6l-100.6 17.32-100.6-17.32v-33.6l40.72-52.76h119.76l40.72 52.76z" fill="#FFD659" p-id="22316"></path><path d="M511.76 612.76h-1.36l-100.6-17.32a8 8 0 0 1-6.64-8v-33.6a8 8 0 0 1 1.68-4.88L445.56 496a8 8 0 0 1 6.32-3.12h119.76a8 8 0 0 1 6.32 3.12l40.72 52.76a8 8 0 0 1 1.68 4.88v33.6a8 8 0 0 1-6.64 8l-100.6 17.32z m-92.6-32l92.6 16 92.6-16v-24l-36.64-47.48H456l-36.64 47.48z" fill="#2FB1EA" p-id="22317"></path><path d="M675.28 590.48v156.72a100.8 100.8 0 0 1-100.8 100.8h-125.44a100.8 100.8 0 0 1-100.8-100.8v-156.72a40.32 40.32 0 0 1 25.76-37.6l20.88-8 116.92 60 116.92-60 20.88 8a40.32 40.32 0 0 1 25.68 37.6z" fill="#6DD0FC" p-id="22318"></path><path d="M675.28 590.48v116.96a100.8 100.8 0 0 1-100.8 100.8h-125.44a100.8 100.8 0 0 1-100.8-100.8v-116.96a40.32 40.32 0 0 1 25.76-37.6l20.88-8 116.92 60 116.92-60 20.88 8a40.32 40.32 0 0 1 25.68 37.6z" fill="#A4ECFF" p-id="22319"></path><path d="M443.52 670.72a39.68 39.68 0 0 0 23.28-2.08l2.8 2.76a60.28 60.28 0 0 0 84.24 0l2.8-2.76a40 40 0 0 0 15 2.96 40.52 40.52 0 0 0 8.4-0.88 40 40 0 0 0 26.88-20l50.28-93.64a40.28 40.28 0 0 0-7.64-4l-20.88-8-116.92 60-116.92-60-20.88 8a40.28 40.28 0 0 0-7.64 4l50.28 93.68a40 40 0 0 0 26.92 19.96z" fill="#6DD0FC" p-id="22320"></path><path d="M574.48 856h-125.44a108.92 108.92 0 0 1-108.8-108.8v-156.72a48.64 48.64 0 0 1 30.84-45.04l20.88-8a8 8 0 0 1 6.56 0.36l113.24 58.12 113.24-58.12a8 8 0 0 1 6.56-0.36l20.88 8a48.64 48.64 0 0 1 30.84 45.04v156.72a108.92 108.92 0 0 1-108.8 108.8z m-180-302.44l-17.56 6.8a32.52 32.52 0 0 0-20.64 30.12v156.72a92.92 92.92 0 0 0 92.8 92.8h125.48a92.92 92.92 0 0 0 92.8-92.8v-156.72a32.52 32.52 0 0 0-20.64-30.12l-17.56-6.8L515.4 612a8 8 0 0 1-7.32 0z" fill="#2FB1EA" p-id="22321"></path><path d="M548 793.72l-20 27.6a20 20 0 0 1-32.68 0l-20-27.6a40.32 40.32 0 0 1-7.16-29.76l18.24-117.76h50.4l18.4 117.8a40.32 40.32 0 0 1-7.2 29.72z" fill="#FF8888" p-id="22322"></path><path d="M491.24 646.2l-6.52 42.08a49.16 49.16 0 0 0 54.04 0l-6.52-42.08z" fill="#F97171" p-id="22323"></path><path d="M511.76 837.72a28 28 0 0 1-22.84-11.68l-20-27.6a48 48 0 0 1-8.56-35.68l18.24-117.76a8 8 0 0 1 8-6.76h50.4a8 8 0 0 1 8 6.76l18.24 117.76a48 48 0 0 1-8.56 35.68l-20 27.6a28 28 0 0 1-22.92 11.68z m-18.36-183.48l-17.16 110.96a32 32 0 0 0 5.72 24l20 27.6a12 12 0 0 0 19.72 0l20-27.6a32 32 0 0 0 5.72-24l-17.16-111z" fill="#2FB1EA" p-id="22324"></path><path d="M566.08 622.72l-40.2 39.44a20 20 0 0 1-28.24 0l-40.2-39.44 54.32-21.96z" fill="#FF8888" p-id="22325"></path><path d="M511.76 676a28 28 0 0 1-19.72-8L452 628.44a8 8 0 0 1 2.6-13.12l54.32-21.96a8 8 0 0 1 6 0l54.32 21.96a8 8 0 0 1 2.6 13.12L531.48 668a28 28 0 0 1-19.72 8z m-40-50.32l31.48 30.88a12.2 12.2 0 0 0 17.04 0l31.48-30.88-40-16z" fill="#2FB1EA" p-id="22326"></path><path d="M436.48 510.36l-41.6 34.44 56.96 106.12 59.92-46.16-75.28-94.4z" fill="#FFFFFF" p-id="22327"></path><path d="M452 658.92a8 8 0 0 1-1.68 0 8 8 0 0 1-5.36-4L388 548.6a8 8 0 0 1 1.96-9.96l41.6-34.4a8 8 0 0 1 11.36 1.16l75.28 94.4a8 8 0 0 1-1.36 11.32l-60 46.16a8 8 0 0 1-4.84 1.64z m-46.8-112l49.4 92 46-35.44-65.12-81.68z" fill="#2FB1EA" p-id="22328"></path><path d="M587.04 510.36l41.6 34.44-56.96 106.12-59.92-46.16 75.28-94.4z" fill="#FFFFFF" p-id="22329"></path><path d="M571.68 658.92a8 8 0 0 1-4.88-1.68l-60-46.16a8 8 0 0 1-1.36-11.32l75.28-94.4a8 8 0 0 1 11.36-1.16l41.6 34.4a8 8 0 0 1 1.96 9.96l-56.96 106.12a8 8 0 0 1-5.36 4 8 8 0 0 1-1.64 0.24z m-48.6-55.52l46 35.44 49.4-92-30.28-25.04z" fill="#2FB1EA" p-id="22330"></path><path d="M431.12 330.08m80.64 0l0 0q80.64 0 80.64 80.64l0 40.32q0 80.64-80.64 80.64l0 0q-80.64 0-80.64-80.64l0-40.32q0-80.64 80.64-80.64Z" fill="#FFC444" p-id="22331"></path><path d="M431.12 330.08m80.64 0l0 0q80.64 0 80.64 80.64l0 12.32q0 80.64-80.64 80.64l0 0q-80.64 0-80.64-80.64l0-12.32q0-80.64 80.64-80.64Z" fill="#FFE76E" p-id="22332"></path><path d="M511.76 539.68a88.76 88.76 0 0 1-88.64-88.64v-40.32a88.64 88.64 0 0 1 177.28 0v40.32a88.76 88.76 0 0 1-88.64 88.64z m0-201.6a72.72 72.72 0 0 0-72.64 72.64v40.32a72.64 72.64 0 1 0 145.28 0v-40.32a72.72 72.72 0 0 0-72.64-72.64z" fill="#2FB1EA" p-id="22333"></path><path d="M28 478m-20 0a20 20 0 1 0 40 0 20 20 0 1 0-40 0Z" fill="#D4FFD4" p-id="22334"></path><path d="M312 902m-16 0a16 16 0 1 0 32 0 16 16 0 1 0-32 0Z" fill="#D4FFD4" p-id="22335"></path><path d="M852 738m-12 0a12 12 0 1 0 24 0 12 12 0 1 0-24 0Z" fill="#D4FFD4" p-id="22336"></path><path d="M736 126m-8 0a8 8 0 1 0 16 0 8 8 0 1 0-16 0Z" fill="#D4FFD4" p-id="22337"></path><path d="M960 186m-4 0a4 4 0 1 0 8 0 4 4 0 1 0-8 0Z" fill="#D4FFD4" p-id="22338"></path><path d="M920 326m-20 0a20 20 0 1 0 40 0 20 20 0 1 0-40 0Z" fill="#FFBDBD" p-id="22339"></path><path d="M424 242m-16 0a16 16 0 1 0 32 0 16 16 0 1 0-32 0Z" fill="#FFBDBD" p-id="22340"></path><path d="M64 582m-12 0a12 12 0 1 0 24 0 12 12 0 1 0-24 0Z" fill="#FFBDBD" p-id="22341"></path><path d="M112 234m-8 0a8 8 0 1 0 16 0 8 8 0 1 0-16 0Z" fill="#FFBDBD" p-id="22342"></path><path d="M316 110m-4 0a4 4 0 1 0 8 0 4 4 0 1 0-8 0Z" fill="#FFBDBD" p-id="22343"></path><path d="M208 770m-20 0a20 20 0 1 0 40 0 20 20 0 1 0-40 0Z" fill="#BBF1FF" p-id="22344"></path><path d="M820 126m-16 0a16 16 0 1 0 32 0 16 16 0 1 0-32 0Z" fill="#BBF1FF" p-id="22345"></path><path d="M568 226m-12 0a12 12 0 1 0 24 0 12 12 0 1 0-24 0Z" fill="#BBF1FF" p-id="22346"></path><path d="M852 846m-8 0a8 8 0 1 0 16 0 8 8 0 1 0-16 0Z" fill="#BBF1FF" p-id="22347"></path><path d="M836 906m-4 0a4 4 0 1 0 8 0 4 4 0 1 0-8 0Z" fill="#BBF1FF" p-id="22348"></path><path d="M56 750m-20 0a20 20 0 1 0 40 0 20 20 0 1 0-40 0Z" fill="#FFF4C5" p-id="22349"></path><path d="M1000 522m-16 0a16 16 0 1 0 32 0 16 16 0 1 0-32 0Z" fill="#FFF4C5" p-id="22350"></path><path d="M708 822m-12 0a12 12 0 1 0 24 0 12 12 0 1 0-24 0Z" fill="#FFF4C5" p-id="22351"></path><path d="M492 134m-8 0a8 8 0 1 0 16 0 8 8 0 1 0-16 0Z" fill="#FFF4C5" p-id="22352"></path><path d="M628 142m-4 0a4 4 0 1 0 8 0 4 4 0 1 0-8 0Z" fill="#FFF4C5" p-id="22353"></path></svg>